<mxfile host="app.diagrams.net" agent="Mozilla/5.0 (Windows NT 10.0; Win64; x64) AppleWebKit/537.36 (KHTML, like Gecko) Chrome/129.0.0.0 Safari/537.36" version="27.0.6">
  <diagram name="PÃ¡gina-1" id="lQXWjhHWw2OA61dbDkcA">
    <mxGraphModel dx="3007" dy="2352" grid="1" gridSize="10" guides="1" tooltips="1" connect="1" arrows="1" fold="1" page="1" pageScale="1" pageWidth="827" pageHeight="1169" math="0" shadow="0">
      <root>
        <mxCell id="0" />
        <mxCell id="1" parent="0" />
        <mxCell id="e0T0N56dgQmtw9QnkBj1-16" value="" style="rounded=0;whiteSpace=wrap;html=1;fillColor=#FFFFFF;" vertex="1" parent="1">
          <mxGeometry x="-400" y="-120" width="1840" height="1240" as="geometry" />
        </mxCell>
        <mxCell id="e0T0N56dgQmtw9QnkBj1-1" value="" style="rounded=0;whiteSpace=wrap;html=1;fillColor=#CCFFFF;" vertex="1" parent="1">
          <mxGeometry x="-90" y="478.5" width="1130" height="581.5" as="geometry" />
        </mxCell>
        <mxCell id="pNBGswzQlwmljYe4jD8q-54" value="" style="rounded=1;whiteSpace=wrap;html=1;fillColor=#E6E6E6;" parent="1" vertex="1">
          <mxGeometry x="160" y="-50" width="680" height="438" as="geometry" />
        </mxCell>
        <mxCell id="pNBGswzQlwmljYe4jD8q-52" value="" style="rounded=1;whiteSpace=wrap;html=1;fillColor=#E6E6E6;" parent="1" vertex="1">
          <mxGeometry x="690" y="103" width="130" height="140" as="geometry" />
        </mxCell>
        <mxCell id="pNBGswzQlwmljYe4jD8q-38" value="" style="rounded=1;whiteSpace=wrap;html=1;fillColor=#E6E6E6;" parent="1" vertex="1">
          <mxGeometry x="280" y="40" width="380" height="320" as="geometry" />
        </mxCell>
        <mxCell id="pNBGswzQlwmljYe4jD8q-36" value="" style="rounded=1;whiteSpace=wrap;html=1;fillColor=#E6E6E6;" parent="1" vertex="1">
          <mxGeometry x="390" y="100" width="190" height="170" as="geometry" />
        </mxCell>
        <mxCell id="e0T0N56dgQmtw9QnkBj1-17" value="" style="rounded=1;whiteSpace=wrap;html=1;fillColor=#E6E6E6;" vertex="1" parent="1">
          <mxGeometry x="-361" y="110" width="430" height="170" as="geometry" />
        </mxCell>
        <mxCell id="pNBGswzQlwmljYe4jD8q-56" value="" style="edgeStyle=orthogonalEdgeStyle;rounded=0;orthogonalLoop=1;jettySize=auto;html=1;" parent="1" source="pNBGswzQlwmljYe4jD8q-1" target="pNBGswzQlwmljYe4jD8q-41" edge="1">
          <mxGeometry relative="1" as="geometry" />
        </mxCell>
        <mxCell id="pNBGswzQlwmljYe4jD8q-1" value="User" style="verticalLabelPosition=bottom;html=1;verticalAlign=top;align=center;strokeColor=none;fillColor=#00BEF2;shape=mxgraph.azure.user;" parent="1" vertex="1">
          <mxGeometry x="-330" y="169" width="47.5" height="50" as="geometry" />
        </mxCell>
        <mxCell id="pNBGswzQlwmljYe4jD8q-60" style="edgeStyle=orthogonalEdgeStyle;rounded=0;orthogonalLoop=1;jettySize=auto;html=1;entryX=0;entryY=0.5;entryDx=0;entryDy=0;" parent="1" source="pNBGswzQlwmljYe4jD8q-34" target="pNBGswzQlwmljYe4jD8q-52" edge="1">
          <mxGeometry relative="1" as="geometry" />
        </mxCell>
        <mxCell id="pNBGswzQlwmljYe4jD8q-34" value="mototrack-vm" style="image;sketch=0;aspect=fixed;html=1;points=[];align=center;fontSize=12;image=img/lib/mscae/VM_Linux.svg;" parent="1" vertex="1">
          <mxGeometry x="460" y="150" width="50" height="46" as="geometry" />
        </mxCell>
        <mxCell id="pNBGswzQlwmljYe4jD8q-35" value="" style="shape=image;html=1;verticalAlign=top;verticalLabelPosition=bottom;labelBackgroundColor=#ffffff;imageAspect=0;aspect=fixed;image=https://cdn1.iconfinder.com/data/icons/operating-system-flat-1/30/ubuntu-128.png" parent="1" vertex="1">
          <mxGeometry x="490" y="130" width="40" height="40" as="geometry" />
        </mxCell>
        <mxCell id="pNBGswzQlwmljYe4jD8q-37" value="Subnet" style="image;aspect=fixed;html=1;points=[];align=center;fontSize=12;image=img/lib/azure2/networking/Subnet.svg;" parent="1" vertex="1">
          <mxGeometry x="402" y="111.98" width="30.1" height="18.02" as="geometry" />
        </mxCell>
        <mxCell id="pNBGswzQlwmljYe4jD8q-57" value="" style="edgeStyle=orthogonalEdgeStyle;rounded=0;orthogonalLoop=1;jettySize=auto;html=1;" parent="1" source="pNBGswzQlwmljYe4jD8q-41" target="pNBGswzQlwmljYe4jD8q-42" edge="1">
          <mxGeometry relative="1" as="geometry" />
        </mxCell>
        <mxCell id="pNBGswzQlwmljYe4jD8q-41" value="Cloud shell" style="image;aspect=fixed;html=1;points=[];align=center;fontSize=12;image=img/lib/azure2/preview/Azure_Cloud_Shell.svg;" parent="1" vertex="1">
          <mxGeometry x="-180" y="171" width="68" height="48" as="geometry" />
        </mxCell>
        <mxCell id="pNBGswzQlwmljYe4jD8q-58" value="" style="edgeStyle=orthogonalEdgeStyle;rounded=0;orthogonalLoop=1;jettySize=auto;html=1;" parent="1" source="pNBGswzQlwmljYe4jD8q-42" edge="1">
          <mxGeometry relative="1" as="geometry">
            <mxPoint x="150" y="195" as="targetPoint" />
          </mxGeometry>
        </mxCell>
        <mxCell id="pNBGswzQlwmljYe4jD8q-42" value="criar-vm-mototrack.sh" style="verticalLabelPosition=bottom;html=1;verticalAlign=top;align=center;strokeColor=none;fillColor=#00BEF2;shape=mxgraph.azure.script_file;pointerEvents=1;" parent="1" vertex="1">
          <mxGeometry x="-30" y="170" width="47.5" height="50" as="geometry" />
        </mxCell>
        <mxCell id="pNBGswzQlwmljYe4jD8q-46" value="Azure for Students" style="image;aspect=fixed;html=1;points=[];align=center;fontSize=12;image=img/lib/azure2/general/Subscriptions.svg;" parent="1" vertex="1">
          <mxGeometry x="201" y="-39" width="24" height="38.73" as="geometry" />
        </mxCell>
        <mxCell id="pNBGswzQlwmljYe4jD8q-47" value="mototrack-rg" style="image;aspect=fixed;html=1;points=[];align=center;fontSize=12;image=img/lib/azure2/general/Resource_Groups.svg;" parent="1" vertex="1">
          <mxGeometry x="745" y="-20.03000000000003" width="48" height="45.17" as="geometry" />
        </mxCell>
        <mxCell id="pNBGswzQlwmljYe4jD8q-48" value="vnet-mototrack-vm" style="image;aspect=fixed;html=1;points=[];align=center;fontSize=12;image=img/lib/azure2/networking/Virtual_Networks.svg;" parent="1" vertex="1">
          <mxGeometry x="317.75" y="290" width="47" height="28.06" as="geometry" />
        </mxCell>
        <mxCell id="pNBGswzQlwmljYe4jD8q-49" value="mototrack-vm_OsFisk" style="image;aspect=fixed;html=1;points=[];align=center;fontSize=12;image=img/lib/azure2/compute/Disks.svg;" parent="1" vertex="1">
          <mxGeometry x="726.5" y="144.57" width="56.99999999999999" height="56.00000000000001" as="geometry" />
        </mxCell>
        <mxCell id="pNBGswzQlwmljYe4jD8q-62" value="Maquina Virtual" style="text;html=1;align=center;verticalAlign=middle;resizable=0;points=[];autosize=1;strokeColor=none;fillColor=none;" parent="1" vertex="1">
          <mxGeometry x="445" y="-40" width="110" height="30" as="geometry" />
        </mxCell>
        <mxCell id="pNBGswzQlwmljYe4jD8q-63" value="" style="rounded=0;whiteSpace=wrap;html=1;fillColor=#A9C4EB;" parent="1" vertex="1">
          <mxGeometry x="-25" y="560" width="250" height="462" as="geometry" />
        </mxCell>
        <mxCell id="pNBGswzQlwmljYe4jD8q-64" value="Client" style="rounded=0;whiteSpace=wrap;html=1;fillColor=#7EA6E0;" parent="1" vertex="1">
          <mxGeometry x="-5" y="580" width="210" height="30" as="geometry" />
        </mxCell>
        <mxCell id="pNBGswzQlwmljYe4jD8q-68" value="" style="rounded=0;whiteSpace=wrap;html=1;fillColor=#A9C4EB;" parent="1" vertex="1">
          <mxGeometry x="267.25" y="560" width="440" height="459.5" as="geometry" />
        </mxCell>
        <mxCell id="pNBGswzQlwmljYe4jD8q-69" value="Docker Host" style="rounded=0;whiteSpace=wrap;html=1;fillColor=#7EA6E0;" parent="1" vertex="1">
          <mxGeometry x="297.25" y="580" width="380" height="30" as="geometry" />
        </mxCell>
        <mxCell id="pNBGswzQlwmljYe4jD8q-97" style="edgeStyle=orthogonalEdgeStyle;rounded=0;orthogonalLoop=1;jettySize=auto;html=1;" parent="1" source="pNBGswzQlwmljYe4jD8q-71" target="pNBGswzQlwmljYe4jD8q-79" edge="1">
          <mxGeometry relative="1" as="geometry" />
        </mxCell>
        <mxCell id="pNBGswzQlwmljYe4jD8q-71" value="Docker run" style="rounded=1;whiteSpace=wrap;html=1;fillColor=#D4E1F5;" parent="1" vertex="1">
          <mxGeometry x="-6.12" y="758.12" width="212.25" height="24" as="geometry" />
        </mxCell>
        <mxCell id="pNBGswzQlwmljYe4jD8q-98" style="edgeStyle=orthogonalEdgeStyle;rounded=0;orthogonalLoop=1;jettySize=auto;html=1;dashed=1;" parent="1" source="pNBGswzQlwmljYe4jD8q-72" target="pNBGswzQlwmljYe4jD8q-79" edge="1">
          <mxGeometry relative="1" as="geometry" />
        </mxCell>
        <mxCell id="pNBGswzQlwmljYe4jD8q-72" value="Docker build" style="rounded=1;whiteSpace=wrap;html=1;fillColor=#D4E1F5;" parent="1" vertex="1">
          <mxGeometry x="-6.12" y="807.12" width="212.25" height="24" as="geometry" />
        </mxCell>
        <mxCell id="pNBGswzQlwmljYe4jD8q-99" style="edgeStyle=orthogonalEdgeStyle;rounded=0;orthogonalLoop=1;jettySize=auto;html=1;dashed=1;dashPattern=8 8;" parent="1" source="pNBGswzQlwmljYe4jD8q-73" target="pNBGswzQlwmljYe4jD8q-79" edge="1">
          <mxGeometry relative="1" as="geometry" />
        </mxCell>
        <mxCell id="pNBGswzQlwmljYe4jD8q-73" value="Docker pull" style="rounded=1;whiteSpace=wrap;html=1;fillColor=#D4E1F5;" parent="1" vertex="1">
          <mxGeometry x="-6.12" y="857.12" width="212.25" height="24" as="geometry" />
        </mxCell>
        <mxCell id="pNBGswzQlwmljYe4jD8q-74" value="Images" style="rounded=0;whiteSpace=wrap;html=1;fillColor=#99CCFF;" parent="1" vertex="1">
          <mxGeometry x="437.5" y="626" width="110" height="19" as="geometry" />
        </mxCell>
        <mxCell id="pNBGswzQlwmljYe4jD8q-101" style="edgeStyle=orthogonalEdgeStyle;rounded=0;orthogonalLoop=1;jettySize=auto;html=1;" parent="1" source="pNBGswzQlwmljYe4jD8q-75" target="pNBGswzQlwmljYe4jD8q-78" edge="1">
          <mxGeometry relative="1" as="geometry">
            <Array as="points">
              <mxPoint x="545" y="727" />
              <mxPoint x="545" y="727" />
            </Array>
          </mxGeometry>
        </mxCell>
        <mxCell id="pNBGswzQlwmljYe4jD8q-75" value="" style="rounded=0;whiteSpace=wrap;html=1;fillColor=#D4E1F5;" parent="1" vertex="1">
          <mxGeometry x="435.25" y="658.5" width="112.25" height="191.5" as="geometry" />
        </mxCell>
        <mxCell id="pNBGswzQlwmljYe4jD8q-76" value="" style="dashed=0;outlineConnect=0;html=1;align=center;labelPosition=center;verticalLabelPosition=bottom;verticalAlign=top;shape=mxgraph.weblogos.java" parent="1" vertex="1">
          <mxGeometry x="474.17" y="721.75" width="34.4" height="65" as="geometry" />
        </mxCell>
        <mxCell id="pNBGswzQlwmljYe4jD8q-77" value="Containers" style="rounded=0;whiteSpace=wrap;html=1;fillColor=#99CCFF;" parent="1" vertex="1">
          <mxGeometry x="576.62" y="626" width="110" height="19" as="geometry" />
        </mxCell>
        <mxCell id="pNBGswzQlwmljYe4jD8q-78" value="" style="rounded=0;whiteSpace=wrap;html=1;fillColor=#D4E1F5;" parent="1" vertex="1">
          <mxGeometry x="572.88" y="658.5" width="112.25" height="137.5" as="geometry" />
        </mxCell>
        <mxCell id="pNBGswzQlwmljYe4jD8q-100" style="edgeStyle=orthogonalEdgeStyle;rounded=0;orthogonalLoop=1;jettySize=auto;html=1;" parent="1" source="pNBGswzQlwmljYe4jD8q-79" target="pNBGswzQlwmljYe4jD8q-75" edge="1">
          <mxGeometry relative="1" as="geometry">
            <Array as="points">
              <mxPoint x="415" y="742" />
              <mxPoint x="415" y="742" />
            </Array>
          </mxGeometry>
        </mxCell>
        <mxCell id="pNBGswzQlwmljYe4jD8q-79" value="Docker daemon" style="rounded=1;whiteSpace=wrap;html=1;fillColor=#D4E1F5;" parent="1" vertex="1">
          <mxGeometry x="281.25" y="633.25" width="120" height="372.75" as="geometry" />
        </mxCell>
        <mxCell id="pNBGswzQlwmljYe4jD8q-81" value="" style="rounded=0;whiteSpace=wrap;html=1;fillColor=#A9C4EB;" parent="1" vertex="1">
          <mxGeometry x="745" y="560" width="250" height="456" as="geometry" />
        </mxCell>
        <mxCell id="pNBGswzQlwmljYe4jD8q-82" value="Registry" style="rounded=0;whiteSpace=wrap;html=1;fillColor=#7EA6E0;" parent="1" vertex="1">
          <mxGeometry x="765" y="580" width="210" height="30" as="geometry" />
        </mxCell>
        <mxCell id="pNBGswzQlwmljYe4jD8q-86" value="Images" style="rounded=0;whiteSpace=wrap;html=1;fillColor=#99CCFF;" parent="1" vertex="1">
          <mxGeometry x="820" y="626" width="110" height="19" as="geometry" />
        </mxCell>
        <mxCell id="pNBGswzQlwmljYe4jD8q-102" style="edgeStyle=orthogonalEdgeStyle;rounded=0;orthogonalLoop=1;jettySize=auto;html=1;dashed=1;exitX=0.47;exitY=0.999;exitDx=0;exitDy=0;exitPerimeter=0;" parent="1" source="pNBGswzQlwmljYe4jD8q-87" target="pNBGswzQlwmljYe4jD8q-75" edge="1">
          <mxGeometry relative="1" as="geometry">
            <Array as="points">
              <mxPoint x="866" y="806" />
            </Array>
            <mxPoint x="870" y="790" as="sourcePoint" />
          </mxGeometry>
        </mxCell>
        <mxCell id="pNBGswzQlwmljYe4jD8q-87" value="" style="rounded=0;whiteSpace=wrap;html=1;fillColor=#D4E1F5;" parent="1" vertex="1">
          <mxGeometry x="810" y="666.62" width="120" height="91.5" as="geometry" />
        </mxCell>
        <mxCell id="pNBGswzQlwmljYe4jD8q-90" value="" style="rounded=0;whiteSpace=wrap;html=1;fillColor=#D4E1F5;" parent="1" vertex="1">
          <mxGeometry x="810" y="916" width="120" height="60" as="geometry" />
        </mxCell>
        <mxCell id="pNBGswzQlwmljYe4jD8q-93" value="&lt;span style=&quot;background-color: light-dark(rgb(212, 225, 245), rgb(212, 225, 245));&quot;&gt;Ubuntu&lt;/span&gt;" style="shape=image;html=1;verticalAlign=top;verticalLabelPosition=bottom;labelBackgroundColor=#ffffff;imageAspect=0;aspect=fixed;image=https://cdn1.iconfinder.com/data/icons/operating-system-flat-1/30/ubuntu-128.png" parent="1" vertex="1">
          <mxGeometry x="855" y="690.62" width="30" height="30" as="geometry" />
        </mxCell>
        <mxCell id="pNBGswzQlwmljYe4jD8q-96" value="" style="image;sketch=0;aspect=fixed;html=1;points=[];align=center;fontSize=12;image=img/lib/mscae/Docker.svg;" parent="1" vertex="1">
          <mxGeometry x="845" y="926" width="50" height="41" as="geometry" />
        </mxCell>
        <mxCell id="pNBGswzQlwmljYe4jD8q-104" value="Plugins" style="rounded=0;whiteSpace=wrap;html=1;fillColor=#99CCFF;" parent="1" vertex="1">
          <mxGeometry x="815" y="881.12" width="110" height="19" as="geometry" />
        </mxCell>
        <mxCell id="pNBGswzQlwmljYe4jD8q-107" style="edgeStyle=orthogonalEdgeStyle;rounded=0;orthogonalLoop=1;jettySize=auto;html=1;dashed=1;entryX=0.562;entryY=0.996;entryDx=0;entryDy=0;entryPerimeter=0;" parent="1" source="pNBGswzQlwmljYe4jD8q-79" target="pNBGswzQlwmljYe4jD8q-87" edge="1">
          <mxGeometry relative="1" as="geometry">
            <Array as="points">
              <mxPoint x="877" y="860" />
            </Array>
            <mxPoint x="814" y="770" as="targetPoint" />
          </mxGeometry>
        </mxCell>
        <mxCell id="e0T0N56dgQmtw9QnkBj1-2" value="Estrutura Conteiner" style="text;html=1;align=center;verticalAlign=middle;resizable=0;points=[];autosize=1;strokeColor=none;fillColor=none;" vertex="1" parent="1">
          <mxGeometry x="410" y="490" width="130" height="30" as="geometry" />
        </mxCell>
        <mxCell id="e0T0N56dgQmtw9QnkBj1-3" value="&lt;u&gt;&lt;font style=&quot;color: rgb(255, 0, 0);&quot;&gt;Colocar NSGR AQQU&lt;/font&gt;I&lt;/u&gt;" style="text;html=1;align=center;verticalAlign=middle;resizable=0;points=[];autosize=1;strokeColor=none;fillColor=none;" vertex="1" parent="1">
          <mxGeometry x="305" y="207.57" width="140" height="30" as="geometry" />
        </mxCell>
        <mxCell id="e0T0N56dgQmtw9QnkBj1-4" value="" style="shape=image;verticalLabelPosition=bottom;labelBackgroundColor=default;verticalAlign=top;aspect=fixed;imageAspect=0;image=https://cdn.pixabay.com/photo/2019/08/05/15/08/container-4386213_960_720.png;" vertex="1" parent="1">
          <mxGeometry x="595.99" y="715" width="71.26" height="39.85" as="geometry" />
        </mxCell>
        <mxCell id="e0T0N56dgQmtw9QnkBj1-5" value="AplicaÃ§Ã£o API" style="rounded=0;whiteSpace=wrap;html=1;" vertex="1" parent="1">
          <mxGeometry x="1060" y="105" width="120" height="60" as="geometry" />
        </mxCell>
        <mxCell id="e0T0N56dgQmtw9QnkBj1-6" value="" style="rounded=0;whiteSpace=wrap;html=1;fillColor=#97D077;" vertex="1" parent="1">
          <mxGeometry x="1000" y="50" width="380" height="190" as="geometry" />
        </mxCell>
        <mxCell id="e0T0N56dgQmtw9QnkBj1-7" value="Estrutura Banco de Dados da aplicaÃ§Ã£o" style="text;html=1;align=center;verticalAlign=middle;resizable=0;points=[];autosize=1;strokeColor=none;fillColor=none;" vertex="1" parent="1">
          <mxGeometry x="1075" y="60" width="230" height="30" as="geometry" />
        </mxCell>
        <mxCell id="e0T0N56dgQmtw9QnkBj1-8" value="&amp;nbsp;" style="rounded=0;whiteSpace=wrap;html=1;fillColor=#D5E8D4;" vertex="1" parent="1">
          <mxGeometry x="1050" y="100.49000000000001" width="110" height="99.01" as="geometry" />
        </mxCell>
        <mxCell id="e0T0N56dgQmtw9QnkBj1-9" value="AplicaÃ§Ã£o API" style="text;html=1;align=center;verticalAlign=middle;resizable=0;points=[];autosize=1;strokeColor=none;fillColor=none;" vertex="1" parent="1">
          <mxGeometry x="1055" y="97.43" width="100" height="30" as="geometry" />
        </mxCell>
        <mxCell id="e0T0N56dgQmtw9QnkBj1-10" value="" style="dashed=0;outlineConnect=0;html=1;align=center;labelPosition=center;verticalLabelPosition=bottom;verticalAlign=top;shape=mxgraph.weblogos.java" vertex="1" parent="1">
          <mxGeometry x="1093.9" y="130.74" width="22.2" height="38.51" as="geometry" />
        </mxCell>
        <mxCell id="e0T0N56dgQmtw9QnkBj1-11" value="&amp;nbsp;" style="rounded=0;whiteSpace=wrap;html=1;fillColor=#D5E8D4;" vertex="1" parent="1">
          <mxGeometry x="1210" y="100.49" width="110" height="99.01" as="geometry" />
        </mxCell>
        <mxCell id="e0T0N56dgQmtw9QnkBj1-12" value="Banco de Dados" style="text;html=1;align=center;verticalAlign=middle;resizable=0;points=[];autosize=1;strokeColor=none;fillColor=none;" vertex="1" parent="1">
          <mxGeometry x="1210" y="100.49" width="110" height="30" as="geometry" />
        </mxCell>
        <mxCell id="e0T0N56dgQmtw9QnkBj1-13" value="" style="shape=image;verticalLabelPosition=bottom;labelBackgroundColor=default;verticalAlign=top;aspect=fixed;imageAspect=0;image=data:image/png,iVBORw0KGgoAAAANSUhEUgAAATEAAAClCAMAAAADOzq7AAAA21BMVEX////gGiAiGx5rdXgAAADfAADh4eHl5ebfAA/9+PXqh4XfCw0fGBvwrqrR0NAfFxonISPgFBvodHMvKiztm5fmYV4YDhL31tPhOzoXDRJraGpNSUv88u7FxMTjRULkVVI9ODoPAAjv7+8LAACopqfyw8D65uTmamffCxXZ2NhzcXKXlZY1MDK8u7zvpqLqhIHfJif45+X42dfwuLXqkI+IhoZYVVZIREa0s7PgKCTme3jwvLrlWlfiODTuoZ7zubrhSUl+e3x3bGoUGB2WjYygn59fXF0zIyORkZJ/FlkIAAAM8klEQVR4nO2afV/iuhLHi6dFoMVSxSqKKFS0ig+oqOsTV/ceXd//K7rJJC19mKTB9d5zPufO959dYUgnv2QmkwHLIgiCIAiCIAiCIAiCIAiCIAiCIAiCIAiCIAiCIAiCIIh/Glfji24LY96+Ltq2L1FLway9pX/SeNN5uOzrbZpbbdybVuuSDyEcaJpOrr+lmFzrsgsuHb8+XpkOJkacDxzHcRsYLntnc5wzX3dQSwmzn2nm8ujEtaDh6GR9elZ603DazKALDriGirVfNcNxP7ovN+OxU9oYapotxwlqOmJnO6vZeqy1rtVc50bpvgMWQaycbtt11OPHz9yk68IYRop1Hc1w7iOzOHrpx639o6mpXtY4disE4N45mwv/KhWr1ZwW/rC+Iw0a67jB0bajHfdoOcWup7rhgikf4qLd3G6/WK+mcTmr2F8JjYd02xooVnO66NOOG6nBGHt/rNkQ/ENzaynFbvSTEz7M282XzQtrYKjYY7IGQeygNJJnBmmkS8Vwe1fao5nqabHiARYFN+n7sYsNPrCWUmxeMdwxWF1v97f7L1eGUdl1Ejmm6xdtjNm+4yY2V1nFpqh5u/siM9U28rgY5BSaIoG7lXrj7Hexwa+WUuwpHS7YnCOjXcgT+3L/mtlWHPGSsRzTGTypjY66MlRiKQIohioCXDiZLZ9jHWIyeJGSFU+nfiDeaARzffVhptiVnJw7vamwvBm8bBoelQ/SdzzpLJ49cLN2FYrJ2IqPi6/L9XGuL110F8oklz1kcMwUG8jk8Vgx2jLImHQ0G0yyKScDa1+lmLUPvgbFl6ewPm7LaoroLCyUjElnVu23iWLJ+swrh1sC6XjbwFREkguzqVRMFF1OIbRm8GrAhUxmc5R9fxN0bpS2ZhkjxbYDRbb8DVTRgyEKqSDm/69UTAiS18O6zqY3oU78mnlfpB30CC1iopjYsTovv8AxuO2Y1SGzRjrfrykmdqncQjIrZ7e3ODDUt4UMJopl/P0+xDpvmhmLObo89VQqJmbk5GaUnKAyVOf5P61025n4YqIYBOU3bzERJkZZjDMIEn2rFGtCxRW8ZF8rbart7JbjwB6MFZenPCaKyaDc1GKUkBagsaOm1UjSTJViokpo5M48cXzG++kLW4Vzuu+ar5+BYkfJjV+HQZGQ418izipaVSlz7mZQs6oUu06Kt+xStMuH46OYdjJvsQnN8o6BYtfaC73A5FjO8RXFIM8sFOsO9otM5QUh15xoIqVWU1T4DVlgSsWM7irfpFi8XBcxUczwqJRuBg9Wbo/NnOJOlxfxIDefY3k9yg0or91SJFG+mMXJ9yhmnMFTxkvEgZXVKRuVbbyfEuQujeOcNinP4moATSq25WDHVRf8lpFi8qQJ8AYL8Gw48QViVc18tOThAzGUy2NjTLJGkLvYxrn4S5HZWZblcBYHryaumJyVwuT1ekuJaTrKIHw07As9LQrMfOY/qhWagEHDecx5I3O8WxrzQp4RIO+jKDlNjm4TxUR555hNzhRZFpuF80Bc03jWK5yV/Ze0sQp9u+1ZftZJHXFz9TAoILZnDI1CEbqqbnYOE8XE6eyaRpAZR/KuaLI9Rcku6qlSdfEs02x8cXR9VJqHaFnwj86cII8UWjQxROvJJK+aKNYs1zPfwHP5Pqwgd40u12PrSWfyovzRWeY+9KJou8PWnRvP0ah3cSnO5+kX0pUaGS+NQVULTx52Ulukgk066s5l8aNJer/IPLAE7F3ZNQviynaokWLya6v4YdmqS4vIybU41pdBydcncvmxmj/51sbZL8xDdEIT60vFN32QTJ+SiqCiJWzYg50nwy1dd2loTmM56nZbEQzNrUunkY859Ja0JSVrTHNrepEPtWb5G6t4EbTpysSza50cUrGq2cm2dc15mH9fNusnX67xUs/FcBK9ak5yDcPvlVcPifqZQlWGhpsGa7Nf5DXTdHqVzwpchTcufN3elaGhMBF2THK5H7TDmX2FlOGoYfB1bV4w1U28ue1mQkwgy3rddsgdKq9Vl5sGV7Zb/S2+uG5NG1VmX2hq9wcGd9Z8clH2Lo6TqEr8uMmqoUJ+s1SDOFyv+IoeTtVqxZI+6bN+csGD8e+DsnSdqpVgej1kDjB1t6eVSCb6YLImqmjz5psY40Cnmdi+7cpFTnu7N9pf4Xy1qd1vZX4sUFYrdp2X3FkKX9Ti/bF2mv+5y8kXkBULmTTPZEppTx03xt2R5U1f/+uM/D2mGygnZ3TBUDBuDRS/u3Bqm/NCgXQMr+P30XH6uTGrFgSVX3bsy1Mz2Rhb3X3FrzrkmXc10PQkGPu54bdmr/jkzH5PpaYp6F9l6SODSkP9MM2+xQ5CnWHxM/2rZvGlEhVvl8xMhyMIgiAIgiAIgiAIgiD+D1n96xj9bR62lGKffxB/kGLLspRiq/W/jP/po7UPW0oxgiAIgiAIgiAIgiAI4p/EWsJJ5c8bV8FuhLxTXyuheVilK/hDFozARt9r3vt829m5/YEPdJL39UQ7UhF7gXd6rjXtgdUp8s6OXQLr0p2It/a04ws2bjWinQoTtcHo1raHvTAc2vYONs5H3tcD9UgInreS4PXsDdVsLD5fMIqwKfRWCqCKTYb8rd5PxQM2/MXn/chWL18EPtvKrbFmgwVYDXuIZDs5f8Nd5ZMwQLGQAe769kRpeTsUWiCintp8hBBc9OG/qGJipqjmHFAsTHzxbFX4nsPSrQxvFe+v2T6fSS+0Iz7gWdkCFAsThveKgXC4Yv7Hzs7dgQ2K2IcqS+4nc6WHhOWEDcDY4GPtwn8/kCyzZ4t1V+0erljIR/rYgKkeKBz5CGEcH5EC6PBxDvZGo9HExh/HFQvvdhLeFAPhcMVs2LirbzYsrSKj8vn6Bz7bIsojYpdNRbkzLOtnb8U742G5g7/PFZN785NLZuOpbASOeMqw/MEXJhSf/WS7oPdRMuGKqYO6AlBMigTbfahQfCdkq8plUycYUEydCdlnh5OfPaUUoJicR8dTin/Ix+GO9HBP33qLQFi1o8j+d3kuPa2jerKKQQb3Q9Suyf385LMO71Rj6RXj62HX+Q6wf6AGWcXOfOUuuA+5C3y3+0ovwiR1vB8ySibfpxgch/jSHsJ8rbtQuUWqFNvlmxRiSqF5VjHfY0c3alW3Idn+OVQ9i7uIn9Up36eY9Yv9Fb1jdvcwX+sw0hwOWsW4VNHE0mieKjaq3/WUj+GpKRqBcNghxI6hCNLxraYkF4o1RxKlHUpesV1fkR5WbSGlZotUKAZa1+W/aFhyxbwOo2ez5bH/xMdhB3LIczmLW9/HRBnZUCgN7d7dRHEM5auLJc+AvGL84EZXjhefYHbvq8NSqxif4YEljzq0AoJ6zONwC8Vk15I8yMtD/BDas0WB6oWRvTHBfBUVrCf5LcV2VIqx2YhpvmvCUqcYj6IIPnfvK9JMVrGVzh0+EDucvIirwHOuok5ZvbN7Xnp3QJwFxTxf8luK3SkUO0nny8MzVBTJOsV4+hF7k2uO5kqIShZqvsfuuCshfv1g9wapE9u03lCx29dOPTsSqnl2+VlcMW8jIfwdxfj6YwXZbTpfSHWKk0inWM9P8p+oQBGTRQU72uNFPRZzUKKIR8Aa4HUK5+T99JfIaOUkAplfXWrrySnW5FdDzAufp5YDgF+Fok90LI1iPP14G2IET3GNzlYX5wpZ4Ya0cERdGwJ74lZWmtD3VRd7Nl7KwOsrIuq5D+gW0Sp2mskcfKwICbmsYiPwpHRhGxUcQfZPfcJIclcdbjGl9f0+xQ589crmmzlo6GsUswsDYNfosmKlsXhpkneklNfP+cUo7Z2def9VxU7h/ltOlOD+MG3AocvGUSv2AwRIGOKaZxU7tFEbnmfDdBwf621BPETJ1otQ4X9fsZPRaLX+3hkqFv8wPSk5J5CSsLHUiuULfV6VI+eLUIwX4auH0GuziwVqPV9RwAeKkTsaegujt6E68++NRl8q+qH46Q3ZDop8aCki8QYV1ML7A9UtWakY3BQWu6EOjbKSFdRjzJVhJHqo5fLiM3+Z5HqU65RTrlK0e3h+PoE+m13uPEI9xp8kWK4gy3St+YN6yIehBMvUirz+R3tCSsXeCzcjWILS6Z7tWvM6CtmF7H7uLf5cQw9UcUti9b495P+xkZ50vmu9ZKuMnTkCn3+PgH4fMYnYTSJTG63azHqIGO6GzBBT7Cz0fDvz9zsboaz5RuKK5zFfOuUiZ419LMrumF983NJ06yt2or3fQ3TninlZllNsoyNYub+7/YHf9s9WOp2cQPfshQgpAO/464hidbvT8bM3idUhf2TxaQcr0pfOxu4tJvxbyMbPzu6WvdBD6pTJhjwbOm9orb3jd7J8uR37T2K0x1myj0MQBEEQBEEQBEEQBEEQBEEQBEEQBEEQBEEQBEEQBEH8XfkPJbFh0ehuKQcAAAAASUVORK5CYII=;" vertex="1" parent="1">
          <mxGeometry x="1230" y="136" width="70" height="37.87" as="geometry" />
        </mxCell>
        <mxCell id="e0T0N56dgQmtw9QnkBj1-14" style="edgeStyle=orthogonalEdgeStyle;rounded=0;orthogonalLoop=1;jettySize=auto;html=1;entryX=0.523;entryY=-0.004;entryDx=0;entryDy=0;entryPerimeter=0;" edge="1" parent="1" source="pNBGswzQlwmljYe4jD8q-54" target="e0T0N56dgQmtw9QnkBj1-1">
          <mxGeometry relative="1" as="geometry" />
        </mxCell>
        <mxCell id="e0T0N56dgQmtw9QnkBj1-18" value="Processo do UsÃºario" style="text;html=1;align=center;verticalAlign=middle;resizable=0;points=[];autosize=1;strokeColor=none;fillColor=none;" vertex="1" parent="1">
          <mxGeometry x="-211" y="114.57" width="130" height="30" as="geometry" />
        </mxCell>
        <mxCell id="e0T0N56dgQmtw9QnkBj1-19" value="" style="endArrow=classic;html=1;rounded=0;exitX=1;exitY=0.457;exitDx=0;exitDy=0;exitPerimeter=0;" edge="1" parent="1" source="pNBGswzQlwmljYe4jD8q-54" target="e0T0N56dgQmtw9QnkBj1-6">
          <mxGeometry width="50" height="50" relative="1" as="geometry">
            <mxPoint x="980" y="170" as="sourcePoint" />
            <mxPoint x="1030" y="120" as="targetPoint" />
          </mxGeometry>
        </mxCell>
      </root>
    </mxGraphModel>
  </diagram>
</mxfile>
